<mxfile host="app.diagrams.net" modified="2022-01-13T07:00:29.277Z" agent="5.0 (Windows NT 10.0; Win64; x64) AppleWebKit/537.36 (KHTML, like Gecko) Chrome/96.0.4664.110 Safari/537.36" etag="bx7ZpqNpzpj0FP-K93tg" version="16.2.6" type="github">
  <diagram id="RUQsFnbUJq-Mqz2fyxsd" name="Page-1">
    <mxGraphModel dx="2030" dy="1827" grid="1" gridSize="10" guides="1" tooltips="1" connect="1" arrows="1" fold="1" page="1" pageScale="1" pageWidth="827" pageHeight="1169" math="0" shadow="0">
      <root>
        <mxCell id="0" />
        <mxCell id="1" parent="0" />
        <mxCell id="CdNG3Kp7nSvcDPpL_KvK-7" value="" style="shape=cylinder3;whiteSpace=wrap;html=1;boundedLbl=1;backgroundOutline=1;size=15;rotation=90;" parent="1" vertex="1">
          <mxGeometry x="370" y="-10" width="60" height="330" as="geometry" />
        </mxCell>
        <mxCell id="CdNG3Kp7nSvcDPpL_KvK-8" value="" style="shape=cylinder3;whiteSpace=wrap;html=1;boundedLbl=1;backgroundOutline=1;size=15;rotation=90;align=center;" parent="1" vertex="1">
          <mxGeometry x="370" y="80" width="60" height="330" as="geometry" />
        </mxCell>
        <mxCell id="CdNG3Kp7nSvcDPpL_KvK-9" value="" style="shape=cylinder3;whiteSpace=wrap;html=1;boundedLbl=1;backgroundOutline=1;size=15;rotation=90;" parent="1" vertex="1">
          <mxGeometry x="370" y="170" width="60" height="330" as="geometry" />
        </mxCell>
        <mxCell id="CdNG3Kp7nSvcDPpL_KvK-12" value="创建通道" style="edgeStyle=none;rounded=0;orthogonalLoop=1;jettySize=auto;html=1;" parent="1" source="CdNG3Kp7nSvcDPpL_KvK-10" edge="1">
          <mxGeometry relative="1" as="geometry">
            <mxPoint x="235" y="155" as="targetPoint" />
          </mxGeometry>
        </mxCell>
        <mxCell id="CdNG3Kp7nSvcDPpL_KvK-13" value="创建通道" style="edgeStyle=none;rounded=0;orthogonalLoop=1;jettySize=auto;html=1;entryX=0.5;entryY=1;entryDx=0;entryDy=0;entryPerimeter=0;" parent="1" source="CdNG3Kp7nSvcDPpL_KvK-10" target="CdNG3Kp7nSvcDPpL_KvK-8" edge="1">
          <mxGeometry relative="1" as="geometry">
            <mxPoint x="230" y="245" as="targetPoint" />
          </mxGeometry>
        </mxCell>
        <mxCell id="CdNG3Kp7nSvcDPpL_KvK-14" value="创建通道" style="edgeStyle=none;rounded=0;orthogonalLoop=1;jettySize=auto;html=1;entryX=0.5;entryY=1;entryDx=0;entryDy=0;entryPerimeter=0;" parent="1" source="CdNG3Kp7nSvcDPpL_KvK-10" target="CdNG3Kp7nSvcDPpL_KvK-9" edge="1">
          <mxGeometry relative="1" as="geometry" />
        </mxCell>
        <mxCell id="CdNG3Kp7nSvcDPpL_KvK-16" value="管理通道元数据信息(crud)&lt;br&gt;1.任务id&lt;br&gt;2.设备id&lt;br&gt;3.通道id&lt;br&gt;4.通道类型&lt;br&gt;5.任务类型(单频、频段、信号分析)" style="edgeStyle=none;rounded=0;orthogonalLoop=1;jettySize=auto;html=1;entryX=0.5;entryY=1;entryDx=0;entryDy=0;" parent="1" source="CdNG3Kp7nSvcDPpL_KvK-10" target="CdNG3Kp7nSvcDPpL_KvK-15" edge="1">
          <mxGeometry relative="1" as="geometry">
            <mxPoint x="80" y="120" as="targetPoint" />
          </mxGeometry>
        </mxCell>
        <mxCell id="CdNG3Kp7nSvcDPpL_KvK-10" value="Dispatcher" style="whiteSpace=wrap;html=1;aspect=fixed;" parent="1" vertex="1">
          <mxGeometry x="40" y="205" width="80" height="80" as="geometry" />
        </mxCell>
        <mxCell id="CdNG3Kp7nSvcDPpL_KvK-15" value="Holder" style="whiteSpace=wrap;html=1;aspect=fixed;" parent="1" vertex="1">
          <mxGeometry x="40" y="-70" width="80" height="80" as="geometry" />
        </mxCell>
        <mxCell id="OfpSlJqw6SoaU7qYj6EQ-2" value="下发指令" style="edgeStyle=none;rounded=0;orthogonalLoop=1;jettySize=auto;html=1;entryX=0;entryY=0.5;entryDx=0;entryDy=0;" edge="1" parent="1" source="OfpSlJqw6SoaU7qYj6EQ-1" target="CdNG3Kp7nSvcDPpL_KvK-10">
          <mxGeometry relative="1" as="geometry" />
        </mxCell>
        <mxCell id="OfpSlJqw6SoaU7qYj6EQ-1" value="Actor" style="shape=umlActor;verticalLabelPosition=bottom;verticalAlign=top;html=1;outlineConnect=0;" vertex="1" parent="1">
          <mxGeometry x="-200" y="215" width="30" height="60" as="geometry" />
        </mxCell>
      </root>
    </mxGraphModel>
  </diagram>
</mxfile>
